HIERARCHY
ROOT SpineBase
{
  OFFSET 0.000000 0.000000 0.000000
  CHANNELS 6 Xposition Yposition Zposition Zrotation Xrotation Yrotation
  JOINT SpineMid
  {
    OFFSET 0.000000 33.553954 0.000000
    CHANNELS 3 Zrotation Xrotation Yrotation
    JOINT SpineShoulder
    {
      OFFSET -0.121895 24.894085 -0.853723
      CHANNELS 3 Zrotation Xrotation Yrotation
      JOINT Neck
      {
        OFFSET -0.099482 8.229514 -0.638038
        CHANNELS 3 Zrotation Xrotation Yrotation
        JOINT Head
        {
          OFFSET 0.056219 14.998601 -1.823369
          CHANNELS 3 Zrotation Xrotation Yrotation
          End Site
          {
            OFFSET 0 0 0
          }
        }
      }
      JOINT ShoulderLeft
      {
        OFFSET -17.415527 -2.170209 4.764071
        CHANNELS 3 Zrotation Xrotation Yrotation
        JOINT ElbowLeft
        {
          OFFSET -3.513616 -23.456483 -3.307572
          CHANNELS 3 Zrotation Xrotation Yrotation
          JOINT WristLeft
          {
            OFFSET 14.237680 2.604528 -18.935487
            CHANNELS 3 Zrotation Xrotation Yrotation
            JOINT HandLeft
            {
              OFFSET 5.273896 0.249911 -3.516847
              CHANNELS 3 Zrotation Xrotation Yrotation
              JOINT HandTipLeft
              {
                OFFSET 2.901756 0.403202 -1.944283
                CHANNELS 3 Zrotation Xrotation Yrotation
                End Site
                {
                  OFFSET 0 0 0
                }
              }
              JOINT ThumbLeft
              {
                OFFSET 1.254976 4.612909 -0.942116
                CHANNELS 3 Zrotation Xrotation Yrotation
                End Site
                {
                  OFFSET 0 0 0
                }
              }
            }
          }
        }
      }
      JOINT ShoulderRight
      {
        OFFSET 15.736555 -1.727719 -2.294838
        CHANNELS 3 Zrotation Xrotation Yrotation
        JOINT ElbowRight
        {
          OFFSET 5.667642 -21.121044 -0.915763
          CHANNELS 3 Zrotation Xrotation Yrotation
          JOINT WristRight
          {
            OFFSET -20.317518 -0.753666 -18.212706
            CHANNELS 3 Zrotation Xrotation Yrotation
            JOINT HandRight
            {
              OFFSET -2.817129 0.988895 0.293333
              CHANNELS 3 Zrotation Xrotation Yrotation
              JOINT HandTipRight
              {
                OFFSET -3.144962 -0.973690 0.158086
                CHANNELS 3 Zrotation Xrotation Yrotation
                End Site
                {
                  OFFSET 0 0 0
                }
              }
              JOINT ThumbRight
              {
                OFFSET -3.732845 -3.226260 0.610384
                CHANNELS 3 Zrotation Xrotation Yrotation
                End Site
                {
                  OFFSET 0 0 0
                }
              }
            }
          }
        }
      }
    }
  }
  JOINT HipLeft
  {
    OFFSET -7.994145 0.695156 -2.367411
    CHANNELS 3 Zrotation Xrotation Yrotation
    JOINT KneeLeft
    {
      OFFSET -4.851259 -35.025388 -4.340506
      CHANNELS 3 Zrotation Xrotation Yrotation
      JOINT AnkleLeft
      {
        OFFSET -3.401979 -36.794696 6.481258
        CHANNELS 3 Zrotation Xrotation Yrotation
        JOINT FootLeft
        {
          OFFSET -3.295582 -8.398252 -6.723426
          CHANNELS 3 Zrotation Xrotation Yrotation
          End Site
          {
            OFFSET 0 0 0
          }
        }
      }
    }
  }
  JOINT HipRight
  {
    OFFSET 6.742609 1.101688 -5.335145
    CHANNELS 3 Zrotation Xrotation Yrotation
    JOINT KneeRight
    {
      OFFSET 3.518749 -33.404220 -3.189254
      CHANNELS 3 Zrotation Xrotation Yrotation
      JOINT AnkleRight
      {
        OFFSET -1.559992 -37.052478 10.727182
        CHANNELS 3 Zrotation Xrotation Yrotation
        JOINT FootRight
        {
          OFFSET -2.590311 -3.159556 -13.939419
          CHANNELS 3 Zrotation Xrotation Yrotation
          End Site
          {
            OFFSET 0 0 0
          }
        }
      }
    }
  }
}
MOTION
Frames: 14
Frame Time: 0.033333
57.649659 121.752417 354.827324 -0.000000 0.000000 11.386110 -0.000000 0.000000 -11.386110 -0.000000 0.000000 0.000000 -0.000000 0.000000 0.000000 0.000000 0.000000 0.000000 -0.000000 0.000000 0.000000 -0.000000 0.000000 0.000000 -0.000000 0.000000 0.000000 -0.000000 0.000000 0.000000 0.000000 0.000000 0.000000 0.000000 0.000000 0.000000 -0.000000 0.000000 0.000000 -0.000000 0.000000 0.000000 -0.000000 0.000000 0.000000 -0.000000 0.000000 0.000000 0.000000 0.000000 0.000000 0.000000 0.000000 0.000000 -0.000000 0.000000 -11.386110 -0.000000 0.000000 0.000000 -0.000000 0.000000 0.000000 0.000000 0.000000 0.000000 -0.000000 0.000000 -11.386110 -0.000000 0.000000 0.000000 -0.000000 0.000000 0.000000 0.000000 0.000000 0.000000
57.640070 121.757081 354.805221 0.007043 -0.026829 11.362168 -0.001620 0.027691 -11.362166 -0.000000 0.000000 0.000000 -0.000000 0.000000 0.000000 0.000000 0.000000 0.000000 -0.000000 0.000000 0.000000 -0.000000 0.000000 0.000000 -2.128242 -1.522413 1.360542 2.178599 1.215441 0.495004 0.000000 0.000000 0.000000 0.000000 0.000000 0.000000 -0.000000 0.000000 0.000000 -1.006729 0.912854 -0.190794 1.009891 -0.909355 0.206829 -2.063460 0.480314 -1.775575 0.000000 0.000000 0.000000 0.000000 0.000000 0.000000 -0.001620 0.027691 -11.362166 -0.000000 0.000000 0.000000 -2.116191 6.093703 -0.558632 0.000000 0.000000 0.000000 -0.001620 0.027691 -11.362166 -0.000000 0.000000 0.000000 0.456574 -2.481427 0.033540 0.000000 0.000000 0.000000
57.631127 121.760749 354.786293 0.013299 -0.048614 11.333763 -0.003486 0.050279 -11.333756 -0.000000 0.000000 0.000000 -0.000000 0.000000 0.000000 0.000000 0.000000 0.000000 -0.556089 -0.756742 0.188136 0.558619 0.754876 -0.195489 -3.696813 -2.680922 2.217509 3.704548 2.038233 0.734205 0.000000 0.000000 0.000000 0.000000 0.000000 0.000000 -1.128344 0.006556 0.050882 -0.603057 1.570888 -0.402871 1.743100 -1.565512 0.399569 -3.530268 0.788649 -2.818365 0.000000 0.000000 0.000000 0.000000 0.000000 0.000000 -0.003486 0.050279 -11.333756 -0.000000 0.000000 0.000000 -3.714211 10.804791 -0.851326 0.000000 0.000000 0.000000 -0.003486 0.050279 -11.333756 -0.000000 0.000000 0.000000 0.996903 -5.283811 -0.021988 0.000000 0.000000 0.000000
57.622831 121.763420 354.770540 0.018764 -0.065348 11.300909 -0.005595 0.067758 -11.300895 -0.000000 0.000000 0.000000 -0.000000 0.000000 0.000000 0.000000 0.000000 0.000000 -0.755609 -1.037017 0.255126 0.760342 1.033551 -0.268822 -4.727358 -3.442839 2.602532 4.567253 2.494317 0.868956 0.000000 0.000000 0.000000 0.000000 0.000000 0.000000 -1.376267 -0.033344 0.050490 -0.796469 2.019948 -0.542165 2.192764 -1.965717 0.567430 -4.387822 0.876393 -3.126113 0.000000 0.000000 0.000000 0.000000 0.000000 0.000000 -0.005595 0.067758 -11.300895 -0.000000 0.000000 0.000000 -4.809955 14.092518 -0.995339 0.000000 0.000000 0.000000 -0.005595 0.067758 -11.300895 -0.000000 0.000000 0.000000 1.624716 -8.445736 -0.168740 0.000000 0.000000 0.000000
57.615182 121.765094 354.757963 0.023439 -0.077027 11.263616 -0.007943 0.080121 -11.263594 -0.000000 0.000000 0.000000 -0.000000 0.000000 0.000000 0.000000 0.000000 0.000000 -0.898363 -1.245219 0.303557 0.905160 1.240288 -0.323118 -5.235618 -3.793070 2.538741 4.763042 2.598278 0.985745 0.000000 0.000000 0.000000 0.000000 0.000000 0.000000 -1.433526 -0.101227 0.033843 -0.896070 2.238528 -0.649072 2.355318 -2.109789 0.703644 -4.641184 0.727176 -2.719508 0.000000 0.000000 0.000000 0.000000 0.000000 0.000000 -0.007943 0.080121 -11.263594 -0.000000 0.000000 0.000000 -5.412728 15.981056 -1.074545 0.000000 0.000000 0.000000 -0.007943 0.080121 -11.263594 -0.000000 0.000000 0.000000 2.342671 -12.005255 -0.408318 0.000000 0.000000 0.000000
57.608180 121.765771 354.748560 0.027322 -0.083647 11.221894 -0.010522 0.087365 -11.221866 -0.000000 0.000000 0.000000 -0.000000 0.000000 0.000000 0.000000 0.000000 0.000000 -0.982263 -1.378043 0.333265 0.990545 1.372102 -0.356940 -5.226820 -3.728383 2.037168 4.290924 2.347436 1.122603 0.000000 0.000000 0.000000 0.000000 0.000000 0.000000 -1.303945 -0.198273 0.001081 -0.899421 2.227319 -0.725601 2.238032 -1.532296 2.129655 -4.321973 -0.010951 -2.989894 0.000000 0.000000 0.000000 0.000000 0.000000 0.000000 -0.010522 0.087365 -11.221866 -0.000000 0.000000 0.000000 -5.522091 16.488110 -1.136785 0.000000 0.000000 0.000000 -0.010522 0.087365 -11.221866 -0.104587 0.920437 -0.068349 3.292334 -16.910497 -0.615408 0.000000 0.000000 0.000000
57.603449 121.765107 354.744588 0.029648 -0.073502 11.269429 -0.014713 0.077879 -11.269400 -0.000000 0.000000 0.000000 -0.000000 0.000000 0.000000 0.000000 0.000000 0.000000 -0.990167 -1.455187 0.345210 0.999235 1.448976 -0.370421 -4.228484 -2.920919 0.942045 2.833144 1.492413 1.578416 0.000000 0.000000 0.000000 0.000000 0.000000 0.000000 -1.276998 -0.254738 -0.015875 -0.748718 2.131869 -0.857341 1.200889 -0.975718 3.738093 -4.021625 -0.215982 -4.881304 0.000000 0.000000 0.000000 0.000000 0.000000 0.000000 -0.014713 0.077879 -11.269400 -0.000000 0.000000 0.000000 -4.967900 15.125874 -1.184517 0.000000 0.000000 0.000000 -0.014713 0.077879 -11.269400 -0.112865 1.057275 -0.076350 4.342629 -22.067976 -1.105405 0.000000 0.000000 0.000000
57.591300 121.767611 354.741336 0.021593 -0.066519 11.255637 -0.008194 0.069454 -11.255620 -0.000000 0.000000 0.000000 -0.000000 0.000000 0.000000 0.000000 0.000000 0.000000 -0.807220 -1.299083 0.299439 0.814205 1.294717 -0.317791 -2.002147 -1.333954 -0.032205 -0.944271 -0.785613 0.823438 0.000000 0.000000 0.000000 0.000000 0.000000 0.000000 -0.000000 0.000000 0.000000 -0.945898 0.891833 -0.834220 -0.473750 0.258096 4.679351 -0.985653 -2.516076 0.067485 0.000000 0.000000 0.000000 0.000000 0.000000 0.000000 -0.008194 0.069454 -11.255620 -0.000000 0.000000 0.000000 -4.038646 12.627134 -1.173389 0.000000 0.000000 0.000000 -0.008194 0.069454 -11.255620 -0.108359 1.088419 -0.076375 5.118081 -25.906539 -1.998603 0.000000 0.000000 0.000000
57.585809 121.768748 354.743584 0.026090 -0.064274 11.162452 -0.013153 0.068109 -11.162429 -0.000000 0.000000 0.000000 -0.000000 0.000000 0.000000 0.000000 0.000000 0.000000 -0.754953 -1.282363 0.290275 0.761629 1.278409 -0.307222 -1.250242 -0.762891 -1.135456 -1.851519 -1.253987 0.465865 0.000000 0.000000 0.000000 0.000000 0.000000 0.000000 -0.000000 0.000000 0.000000 -0.000000 0.000000 0.000000 -1.994654 1.599926 5.420179 1.731565 -3.888521 1.447730 0.000000 0.000000 0.000000 0.000000 0.000000 0.000000 -0.013153 0.068109 -11.162429 -0.000000 0.000000 0.000000 -2.842561 8.672773 -0.857647 0.000000 0.000000 0.000000 -0.013153 0.068109 -11.162429 -0.052416 1.090946 -0.060775 8.190847 -40.194134 -1.382638 0.000000 0.000000 0.000000
57.588304 121.768468 354.752791 0.038798 -0.038878 10.973620 -0.030688 0.045553 -10.973595 -0.000000 0.000000 0.000000 -0.000000 0.000000 0.000000 0.000000 0.000000 0.000000 -0.672939 -1.056923 0.247112 0.677605 1.053937 -0.259552 0.580431 0.535384 -3.785274 -5.526442 -3.910492 1.284537 0.000000 0.000000 0.000000 0.000000 0.000000 0.000000 1.804777 -0.835010 -0.288049 -0.540140 -0.288758 -0.327353 -4.060557 3.289872 8.355655 3.245095 -5.597537 2.359205 0.000000 0.000000 0.000000 0.000000 0.000000 0.000000 -0.030688 0.045553 -10.973595 -0.000000 0.000000 0.000000 -1.554283 3.602655 -0.117335 0.000000 0.000000 0.000000 -0.030688 0.045553 -10.973595 0.008825 1.205222 -0.048430 7.892795 -39.696460 -2.021327 0.000000 0.000000 0.000000
57.598415 121.773104 354.778630 0.028198 0.012236 10.677816 -0.029977 -0.006799 -10.677820 -0.000000 0.000000 0.000000 -0.000000 0.000000 0.000000 0.000000 0.000000 0.000000 -0.664642 -0.963310 0.232508 0.668639 0.960540 -0.243700 1.274729 1.053797 -6.773110 -5.759368 -4.758801 4.804564 0.000000 0.000000 0.000000 0.000000 0.000000 0.000000 2.481287 -1.478692 -0.469920 -0.549428 -0.248620 -0.390045 -4.190101 5.044734 11.826959 3.959431 -7.745414 2.346221 0.000000 0.000000 0.000000 0.000000 0.000000 0.000000 -0.029977 -0.006799 -10.677820 -0.000000 0.000000 0.000000 0.570776 -3.322418 0.886012 0.000000 0.000000 0.000000 -0.029977 -0.006799 -10.677820 0.106487 1.334685 -0.026698 7.164024 -37.013753 -1.990350 0.000000 0.000000 0.000000
57.620656 121.748118 354.795085 0.051040 -0.018046 10.208352 -0.047034 0.026806 -10.208333 -0.000000 0.000000 0.000000 -0.000000 0.000000 0.000000 0.000000 0.000000 0.000000 -0.876726 -1.402015 0.323110 0.884881 1.396884 -0.344625 -0.390003 0.177458 -8.775523 -2.526616 -3.299882 11.025800 0.000000 0.000000 0.000000 0.000000 0.000000 0.000000 2.549695 -2.234352 -0.657107 -0.547116 0.437438 -0.710883 -2.089424 6.392743 14.451096 1.759727 -8.893217 0.962737 0.000000 0.000000 0.000000 0.000000 0.000000 0.000000 -0.047034 0.026806 -10.208333 -0.000000 0.000000 0.000000 0.968177 -1.022492 -0.369086 0.000000 0.000000 0.000000 -0.047034 0.026806 -10.208333 0.160347 1.468123 -0.017513 6.075654 -31.977978 -0.714654 0.000000 0.000000 0.000000
57.658439 121.690837 354.796442 0.023698 -0.059459 9.722830 -0.013316 0.062607 -9.722811 -0.000000 0.000000 0.000000 -0.813018 -0.981471 -0.102016 0.000000 0.000000 0.000000 -1.291513 -1.859791 0.440029 1.306436 1.849340 -0.482079 -3.028279 -1.155415 -10.718671 2.733315 0.366776 18.146370 0.000000 0.000000 0.000000 0.000000 0.000000 0.000000 1.889656 -1.955521 -0.572369 -0.521651 0.742354 -0.973420 1.763378 7.729868 17.142208 -2.537984 -9.265222 -3.998357 0.000000 0.000000 0.000000 0.000000 0.000000 0.000000 -0.013316 0.062607 -9.722811 -0.000000 0.000000 0.000000 -0.131792 7.756631 -2.781238 0.000000 0.000000 0.000000 -0.013316 0.062607 -9.722811 0.113624 1.529114 -0.033133 5.917407 -30.950134 -0.215653 0.000000 0.000000 0.000000
57.688746 121.600993 354.787338 0.160835 -0.245750 9.046813 -0.120193 0.267982 -9.046187 -0.000000 0.000000 0.000000 -1.058682 -2.073466 -0.139780 0.000000 0.000000 0.000000 -1.905408 -2.530383 0.606086 1.933914 2.508671 -0.690520 -6.276031 -2.467526 -14.740030 8.815439 6.212090 26.282395 0.000000 0.000000 0.000000 0.000000 0.000000 0.000000 -0.489135 -2.003070 -0.525901 0.232814 2.331289 -2.245091 7.612714 8.683267 20.532830 -8.566418 -10.027239 -5.758929 0.000000 0.000000 0.000000 0.000000 0.000000 0.000000 0.085284 2.072980 -9.291241 0.490944 -2.858916 0.425184 -4.459695 7.060171 0.970354 0.000000 0.000000 0.000000 -0.120193 0.267982 -9.046187 0.013508 1.551991 -0.061861 5.772845 -29.802214 -0.182891 0.000000 0.000000 0.000000
